<svg width="199" height="35" viewBox="0 0 199 35" fill="none" xmlns="http://www.w3.org/2000/svg">
<path d="M13.12 0.0159998C18.848 0.0159998 23.104 1.456 25.888 4.336C28.672 7.184 30.064 11.28 30.064 16.624C30.064 20.112 29.376 23.168 28 25.792C26.656 28.384 24.688 30.4 22.096 31.84C19.504 33.28 16.368 34 12.688 34C12.208 34 11.568 33.984 10.768 33.952C9.968 33.92 9.136 33.904 8.272 33.904C7.44 33.872 6.672 33.856 5.968 33.856C4.848 33.856 3.744 33.872 2.656 33.904C1.568 33.904 0.688 33.936 0.0160002 34V33.04C1.104 32.976 1.92 32.848 2.464 32.656C3.04 32.464 3.424 32.08 3.616 31.504C3.808 30.928 3.904 30.064 3.904 28.912V5.104C3.904 3.92 3.808 3.056 3.616 2.512C3.424 1.936 3.04 1.552 2.464 1.36C1.92 1.136 1.104 1.008 0.0160002 0.975999V0.0159998C0.688 0.0479994 1.568 0.0959988 2.656 0.159998C3.744 0.191998 4.816 0.191998 5.872 0.159998C6.992 0.127998 8.256 0.0959988 9.664 0.0639992C11.072 0.0319996 12.224 0.0159998 13.12 0.0159998ZM11.92 0.879997C10.448 0.879997 9.488 1.152 9.04 1.696C8.592 2.24 8.368 3.344 8.368 5.008V29.008C8.368 30.672 8.592 31.776 9.04 32.32C9.52 32.864 10.496 33.136 11.968 33.136C15.456 33.136 18.16 32.512 20.08 31.264C22 29.984 23.344 28.128 24.112 25.696C24.88 23.264 25.264 20.304 25.264 16.816C25.264 13.232 24.832 10.272 23.968 7.936C23.136 5.568 21.744 3.808 19.792 2.656C17.872 1.472 15.248 0.879997 11.92 0.879997ZM45.7435 8.608C48.5595 8.608 50.7515 9.472 52.3195 11.2C53.9195 12.896 54.7195 15.552 54.7195 19.168H37.7755L37.7275 18.256H50.1115C50.1755 16.688 50.0475 15.248 49.7275 13.936C49.4075 12.592 48.8955 11.52 48.1915 10.72C47.5195 9.92 46.6395 9.52 45.5515 9.52C44.0795 9.52 42.7675 10.256 41.6155 11.728C40.4955 13.2 39.8235 15.536 39.5995 18.736L39.7435 18.928C39.6795 19.408 39.6315 19.936 39.5995 20.512C39.5675 21.088 39.5515 21.664 39.5515 22.24C39.5515 24.416 39.9035 26.288 40.6075 27.856C41.3115 29.424 42.2235 30.624 43.3435 31.456C44.4955 32.256 45.6795 32.656 46.8955 32.656C47.8555 32.656 48.7675 32.512 49.6315 32.224C50.4955 31.904 51.2955 31.392 52.0315 30.688C52.7675 29.984 53.4075 29.04 53.9515 27.856L54.9115 28.24C54.5595 29.296 53.9835 30.32 53.1835 31.312C52.3835 32.304 51.3755 33.12 50.1595 33.76C48.9435 34.368 47.5355 34.672 45.9355 34.672C43.6315 34.672 41.6475 34.144 39.9835 33.088C38.3515 32.032 37.0875 30.576 36.1915 28.72C35.3275 26.832 34.8955 24.672 34.8955 22.24C34.8955 19.424 35.3435 17.008 36.2395 14.992C37.1355 12.944 38.3995 11.376 40.0315 10.288C41.6635 9.168 43.5675 8.608 45.7435 8.608ZM70.3608 8.608C71.3848 8.608 72.3768 8.736 73.3368 8.992C74.2968 9.248 75.1608 9.632 75.9288 10.144C76.6648 10.624 77.2248 11.184 77.6088 11.824C77.9928 12.432 78.1848 13.104 78.1848 13.84C78.1848 14.704 77.9448 15.376 77.4648 15.856C76.9848 16.304 76.3768 16.528 75.6408 16.528C74.9368 16.528 74.3128 16.32 73.7688 15.904C73.2568 15.488 73.0008 14.896 73.0008 14.128C73.0008 13.392 73.1928 12.8 73.5768 12.352C73.9928 11.904 74.4728 11.616 75.0168 11.488C74.6968 10.912 74.1208 10.432 73.2888 10.048C72.4888 9.664 71.6248 9.472 70.6968 9.472C69.8968 9.472 69.0968 9.664 68.2968 10.048C67.4968 10.432 66.7608 11.072 66.0888 11.968C65.4168 12.832 64.8728 14.032 64.4568 15.568C64.0408 17.072 63.8328 18.96 63.8328 21.232C63.8328 24.048 64.1528 26.288 64.7928 27.952C65.4328 29.616 66.2648 30.816 67.2888 31.552C68.3448 32.256 69.4968 32.608 70.7448 32.608C71.5768 32.608 72.4248 32.448 73.2888 32.128C74.1528 31.808 74.9688 31.296 75.7368 30.592C76.5048 29.856 77.1608 28.88 77.7048 27.664L78.6168 28C78.2968 29.024 77.7688 30.064 77.0328 31.12C76.2968 32.144 75.3368 32.992 74.1528 33.664C72.9688 34.336 71.5128 34.672 69.7848 34.672C67.8008 34.672 66.0088 34.16 64.4088 33.136C62.8088 32.112 61.5288 30.656 60.5688 28.768C59.6408 26.848 59.1768 24.576 59.1768 21.952C59.1768 19.328 59.6408 17.024 60.5688 15.04C61.5288 13.024 62.8568 11.456 64.5528 10.336C66.2488 9.184 68.1848 8.608 70.3608 8.608ZM93.4645 8.608C95.5125 8.608 97.3525 9.056 98.9845 9.952C100.617 10.848 101.913 12.256 102.873 14.176C103.865 16.096 104.361 18.592 104.361 21.664C104.361 24.736 103.865 27.232 102.873 29.152C101.913 31.04 100.617 32.432 98.9845 33.328C97.3525 34.224 95.5125 34.672 93.4645 34.672C91.4485 34.672 89.6085 34.224 87.9445 33.328C86.3125 32.432 85.0005 31.04 84.0085 29.152C83.0485 27.232 82.5685 24.736 82.5685 21.664C82.5685 18.592 83.0485 16.096 84.0085 14.176C85.0005 12.256 86.3125 10.848 87.9445 9.952C89.6085 9.056 91.4485 8.608 93.4645 8.608ZM93.4645 9.568C91.6405 9.568 90.1365 10.512 88.9525 12.4C87.8005 14.288 87.2245 17.376 87.2245 21.664C87.2245 25.952 87.8005 29.04 88.9525 30.928C90.1365 32.784 91.6405 33.712 93.4645 33.712C95.2885 33.712 96.7765 32.784 97.9285 30.928C99.1125 29.04 99.7045 25.952 99.7045 21.664C99.7045 17.376 99.1125 14.288 97.9285 12.4C96.7765 10.512 95.2885 9.568 93.4645 9.568ZM122.929 8.608C123.793 8.608 124.545 8.784 125.185 9.136C125.857 9.488 126.369 9.952 126.721 10.528C127.105 11.072 127.297 11.696 127.297 12.4C127.297 13.2 127.041 13.904 126.529 14.512C126.049 15.12 125.393 15.424 124.561 15.424C123.889 15.424 123.297 15.216 122.785 14.8C122.273 14.352 122.017 13.728 122.017 12.928C122.017 12.32 122.177 11.808 122.497 11.392C122.849 10.944 123.233 10.592 123.649 10.336C123.425 10.016 123.089 9.856 122.641 9.856C121.649 9.856 120.737 10.16 119.905 10.768C119.073 11.344 118.369 12.096 117.793 13.024C117.217 13.952 116.769 14.944 116.449 16C116.129 17.024 115.969 17.984 115.969 18.88V29.056C115.969 30.624 116.417 31.68 117.313 32.224C118.241 32.736 119.489 32.992 121.057 32.992V34C120.321 33.968 119.281 33.936 117.937 33.904C116.593 33.84 115.169 33.808 113.665 33.808C112.577 33.808 111.489 33.84 110.401 33.904C109.345 33.936 108.545 33.968 108.001 34V32.992C109.313 32.992 110.241 32.752 110.785 32.272C111.361 31.792 111.649 30.88 111.649 29.536V14.512C111.649 13.072 111.393 12.016 110.881 11.344C110.369 10.64 109.409 10.288 108.001 10.288V9.28C109.025 9.376 110.017 9.424 110.977 9.424C111.905 9.424 112.785 9.376 113.617 9.28C114.481 9.152 115.265 8.976 115.969 8.752V14.752C116.321 13.824 116.817 12.896 117.457 11.968C118.129 11.008 118.929 10.208 119.857 9.568C120.785 8.928 121.809 8.608 122.929 8.608ZM140.199 8.608C142.247 8.608 144.087 9.056 145.719 9.952C147.351 10.848 148.647 12.256 149.607 14.176C150.599 16.096 151.095 18.592 151.095 21.664C151.095 24.736 150.599 27.232 149.607 29.152C148.647 31.04 147.351 32.432 145.719 33.328C144.087 34.224 142.247 34.672 140.199 34.672C138.183 34.672 136.343 34.224 134.679 33.328C133.047 32.432 131.735 31.04 130.743 29.152C129.783 27.232 129.303 24.736 129.303 21.664C129.303 18.592 129.783 16.096 130.743 14.176C131.735 12.256 133.047 10.848 134.679 9.952C136.343 9.056 138.183 8.608 140.199 8.608ZM140.199 9.568C138.375 9.568 136.871 10.512 135.687 12.4C134.535 14.288 133.959 17.376 133.959 21.664C133.959 25.952 134.535 29.04 135.687 30.928C136.871 32.784 138.375 33.712 140.199 33.712C142.023 33.712 143.511 32.784 144.663 30.928C145.847 29.04 146.439 25.952 146.439 21.664C146.439 17.376 145.847 14.288 144.663 12.4C143.511 10.512 142.023 9.568 140.199 9.568ZM163.328 8.608C164.608 8.608 165.696 8.816 166.592 9.232C167.488 9.648 168.144 10.032 168.56 10.384C169.616 11.248 170.256 10.672 170.48 8.656H171.584C171.52 9.552 171.472 10.624 171.44 11.872C171.408 13.088 171.392 14.736 171.392 16.816H170.288C170.096 15.632 169.76 14.48 169.28 13.36C168.832 12.24 168.16 11.328 167.264 10.624C166.368 9.888 165.2 9.52 163.76 9.52C162.64 9.52 161.696 9.84 160.928 10.48C160.192 11.088 159.824 12 159.824 13.216C159.824 14.176 160.112 15.008 160.688 15.712C161.264 16.384 162.016 17.024 162.944 17.632C163.872 18.208 164.88 18.848 165.968 19.552C167.184 20.32 168.288 21.104 169.28 21.904C170.272 22.704 171.056 23.584 171.632 24.544C172.24 25.504 172.544 26.64 172.544 27.952C172.544 29.424 172.16 30.656 171.392 31.648C170.624 32.64 169.616 33.392 168.368 33.904C167.152 34.416 165.808 34.672 164.336 34.672C163.632 34.672 162.96 34.608 162.32 34.48C161.712 34.384 161.12 34.224 160.544 34C160.224 33.84 159.888 33.648 159.536 33.424C159.216 33.2 158.896 32.96 158.576 32.704C158.256 32.448 157.968 32.464 157.712 32.752C157.456 33.008 157.264 33.536 157.136 34.336H156.032C156.096 33.312 156.144 32.064 156.176 30.592C156.208 29.12 156.224 27.168 156.224 24.736H157.328C157.552 26.528 157.872 28.096 158.288 29.44C158.704 30.784 159.36 31.84 160.256 32.608C161.152 33.344 162.4 33.712 164 33.712C164.64 33.712 165.28 33.568 165.92 33.28C166.592 32.992 167.152 32.512 167.6 31.84C168.048 31.168 168.272 30.272 168.272 29.152C168.272 27.744 167.76 26.592 166.736 25.696C165.712 24.8 164.416 23.856 162.848 22.864C161.696 22.128 160.608 21.392 159.584 20.656C158.592 19.92 157.776 19.088 157.136 18.16C156.528 17.232 156.224 16.112 156.224 14.8C156.224 13.36 156.544 12.192 157.184 11.296C157.856 10.368 158.736 9.696 159.824 9.28C160.912 8.832 162.08 8.608 163.328 8.608ZM187.965 8.608C190.013 8.608 191.853 9.056 193.485 9.952C195.117 10.848 196.413 12.256 197.373 14.176C198.365 16.096 198.861 18.592 198.861 21.664C198.861 24.736 198.365 27.232 197.373 29.152C196.413 31.04 195.117 32.432 193.485 33.328C191.853 34.224 190.013 34.672 187.965 34.672C185.949 34.672 184.109 34.224 182.445 33.328C180.813 32.432 179.501 31.04 178.509 29.152C177.549 27.232 177.069 24.736 177.069 21.664C177.069 18.592 177.549 16.096 178.509 14.176C179.501 12.256 180.813 10.848 182.445 9.952C184.109 9.056 185.949 8.608 187.965 8.608ZM187.965 9.568C186.141 9.568 184.637 10.512 183.453 12.4C182.301 14.288 181.725 17.376 181.725 21.664C181.725 25.952 182.301 29.04 183.453 30.928C184.637 32.784 186.141 33.712 187.965 33.712C189.789 33.712 191.277 32.784 192.429 30.928C193.613 29.04 194.205 25.952 194.205 21.664C194.205 17.376 193.613 14.288 192.429 12.4C191.277 10.512 189.789 9.568 187.965 9.568Z" fill="white"/>
</svg>
